<svg xmlns="http://www.w3.org/2000/svg" xmlns:xlink="http://www.w3.org/1999/xlink" width="500" zoomAndPan="magnify" viewBox="0 0 375 374.999991" height="500" preserveAspectRatio="xMidYMid meet" version="1.0"><defs><clipPath id="2d10af42ee"><path d="M 37.5 37.5 L 337.5 37.5 L 337.5 337.5 L 37.5 337.5 Z M 37.5 37.5 " clip-rule="nonzero"/></clipPath></defs><g clip-path="url(#2d10af42ee)"><path fill="#ffffff" d="M 187.5 337.5 C 104.628906 337.5 37.5 269.90625 37.5 187.5 C 37.5 105.09375 104.628906 37.5 187.5 37.5 C 270.371094 37.5 337.5 104.628906 337.5 187.5 C 337.5 270.371094 269.90625 337.5 187.5 337.5 Z M 187.5 46.757812 C 109.722656 46.757812 46.757812 109.722656 46.757812 187.5 C 46.757812 265.277344 109.722656 328.242188 187.5 328.242188 C 265.277344 328.242188 328.242188 265.277344 328.242188 187.5 C 328.242188 109.722656 264.816406 46.757812 187.5 46.757812 Z M 187.5 46.757812 " fill-opacity="1" fill-rule="nonzero"/></g></svg>