<svg xmlns="http://www.w3.org/2000/svg" xmlns:xlink="http://www.w3.org/1999/xlink" width="500" zoomAndPan="magnify" viewBox="0 0 375 374.999991" height="500" preserveAspectRatio="xMidYMid meet" version="1.0"><defs><clipPath id="3799805ae7"><path d="M 37.5 37.5 L 337.5 37.5 L 337.5 337.5 L 37.5 337.5 Z M 37.5 37.5 " clip-rule="nonzero"/></clipPath><clipPath id="495e441063"><path d="M 127 107 L 337.5 107 L 337.5 336 L 127 336 Z M 127 107 " clip-rule="nonzero"/></clipPath></defs><rect x="-37.5" width="450" fill="#ffffff" y="-37.499999" height="449.999989" fill-opacity="1"/><rect x="-37.5" width="450" fill="#ffffff" y="-37.499999" height="449.999989" fill-opacity="1"/><g clip-path="url(#3799805ae7)"><path fill="#ffffff" d="M 187.5 337.5 C 104.628906 337.5 37.5 269.90625 37.5 187.5 C 37.5 105.09375 104.628906 37.5 187.5 37.5 C 270.371094 37.5 337.5 104.628906 337.5 187.5 C 337.5 270.371094 269.90625 337.5 187.5 337.5 Z M 187.5 46.757812 C 109.722656 46.757812 46.757812 109.722656 46.757812 187.5 C 46.757812 265.277344 109.722656 328.242188 187.5 328.242188 C 265.277344 328.242188 328.242188 265.277344 328.242188 187.5 C 328.242188 109.722656 264.816406 46.757812 187.5 46.757812 Z M 187.5 46.757812 " fill-opacity="1" fill-rule="nonzero"/><path fill="#3fb24f" d="M 337.5 187.5 C 337.5 270.34375 270.34375 337.5 187.5 337.5 C 104.65625 337.5 37.5 270.34375 37.5 187.5 C 37.5 104.65625 104.65625 37.5 187.5 37.5 C 270.34375 37.5 337.5 104.65625 337.5 187.5 " fill-opacity="1" fill-rule="nonzero"/></g><g clip-path="url(#495e441063)"><path fill="#3fb24f" d="M 337.5 187.5 C 337.5 182.949219 337.296875 178.449219 336.902344 174.003906 L 270.179688 107.277344 L 127.167969 250.289062 L 212.332031 335.453125 C 283.355469 323.621094 337.5 261.882812 337.5 187.5 " fill-opacity="1" fill-rule="nonzero"/><path fill="#499f55" d="M 212.332031 335.453125 L 127.167969 250.289062 L 270.179688 107.277344 L 336.902344 174.003906 C 337.296875 178.449219 337.5 182.949219 337.5 187.5 C 337.5 261.882812 283.355469 323.621094 212.332031 335.453125 " fill-opacity="1" fill-rule="nonzero"/></g><path fill="#ffffff" d="M 290.980469 127.742188 L 267.144531 103.910156 L 148.0625 222.992188 L 101.328125 176.257812 L 77.492188 200.089844 L 148.0625 270.660156 L 290.980469 127.742188 " fill-opacity="1" fill-rule="nonzero"/></svg>