<svg xmlns="http://www.w3.org/2000/svg" xmlns:xlink="http://www.w3.org/1999/xlink" width="500" zoomAndPan="magnify" viewBox="0 0 375 374.999991" height="500" preserveAspectRatio="xMidYMid meet" version="1.0"><defs><clipPath id="4ccaa21937"><path d="M 75 37.5 L 303 37.5 L 303 341 L 75 341 Z M 75 37.5 " clip-rule="nonzero"/></clipPath></defs><g clip-path="url(#4ccaa21937)"><path fill="#ffffff" d="M 286.730469 72.8125 L 245.933594 72.8125 L 245.933594 54.082031 C 245.933594 53.550781 245.90625 53.023438 245.855469 52.492188 C 245.800781 51.964844 245.722656 51.441406 245.621094 50.917969 C 245.515625 50.398438 245.386719 49.882812 245.234375 49.375 C 245.078125 48.867188 244.898438 48.367188 244.695312 47.878906 C 244.492188 47.386719 244.265625 46.910156 244.015625 46.441406 C 243.765625 45.972656 243.492188 45.515625 243.195312 45.074219 C 242.902344 44.632812 242.585938 44.207031 242.246094 43.796875 C 241.910156 43.386719 241.554688 42.992188 241.179688 42.617188 C 240.804688 42.242188 240.410156 41.886719 240 41.550781 C 239.589844 41.210938 239.164062 40.898438 238.722656 40.601562 C 238.28125 40.304688 237.824219 40.035156 237.355469 39.78125 C 236.890625 39.53125 236.410156 39.304688 235.917969 39.101562 C 235.429688 38.898438 234.929688 38.71875 234.421875 38.566406 C 233.914062 38.410156 233.398438 38.28125 232.878906 38.175781 C 232.355469 38.074219 231.832031 37.996094 231.304688 37.941406 C 230.777344 37.890625 230.246094 37.863281 229.714844 37.863281 L 148.453125 37.863281 C 147.921875 37.863281 147.390625 37.890625 146.863281 37.941406 C 146.335938 37.996094 145.8125 38.074219 145.289062 38.175781 C 144.769531 38.28125 144.253906 38.410156 143.746094 38.566406 C 143.238281 38.71875 142.738281 38.898438 142.25 39.101562 C 141.757812 39.304688 141.277344 39.53125 140.808594 39.78125 C 140.34375 40.035156 139.886719 40.304688 139.445312 40.601562 C 139.003906 40.898438 138.578125 41.210938 138.167969 41.550781 C 137.757812 41.886719 137.363281 42.242188 136.988281 42.617188 C 136.613281 42.992188 136.257812 43.386719 135.921875 43.796875 C 135.582031 44.207031 135.265625 44.632812 134.972656 45.074219 C 134.675781 45.515625 134.402344 45.972656 134.152344 46.441406 C 133.902344 46.910156 133.675781 47.386719 133.472656 47.878906 C 133.269531 48.367188 133.089844 48.867188 132.933594 49.375 C 132.78125 49.882812 132.652344 50.398438 132.546875 50.917969 C 132.445312 51.441406 132.363281 51.964844 132.3125 52.492188 C 132.261719 53.023438 132.234375 53.550781 132.234375 54.082031 L 132.234375 72.8125 L 91.4375 72.8125 C 90.90625 72.8125 90.375 72.839844 89.847656 72.890625 C 89.320312 72.945312 88.792969 73.023438 88.273438 73.125 C 87.753906 73.230469 87.238281 73.359375 86.730469 73.511719 C 86.222656 73.667969 85.722656 73.847656 85.230469 74.050781 C 84.742188 74.253906 84.261719 74.480469 83.792969 74.730469 C 83.324219 74.980469 82.871094 75.253906 82.429688 75.550781 C 81.988281 75.84375 81.5625 76.160156 81.152344 76.5 C 80.742188 76.835938 80.347656 77.191406 79.972656 77.566406 C 79.597656 77.941406 79.242188 78.335938 78.902344 78.746094 C 78.566406 79.15625 78.25 79.582031 77.957031 80.023438 C 77.660156 80.464844 77.386719 80.921875 77.136719 81.390625 C 76.886719 81.855469 76.660156 82.335938 76.457031 82.828125 C 76.253906 83.316406 76.074219 83.816406 75.917969 84.324219 C 75.765625 84.832031 75.636719 85.347656 75.53125 85.867188 C 75.425781 86.390625 75.347656 86.914062 75.296875 87.441406 C 75.242188 87.96875 75.21875 88.5 75.214844 89.03125 L 75.214844 100.925781 C 75.234375 101.535156 75.28125 102.144531 75.363281 102.746094 C 75.445312 103.351562 75.5625 103.949219 75.707031 104.542969 C 75.855469 105.132812 76.035156 105.714844 76.242188 106.289062 C 76.453125 106.859375 76.691406 107.421875 76.960938 107.96875 C 77.230469 108.515625 77.53125 109.046875 77.859375 109.558594 C 78.183594 110.074219 78.539062 110.570312 78.917969 111.046875 C 79.300781 111.523438 79.707031 111.976562 80.136719 112.410156 C 80.5625 112.84375 81.015625 113.25 81.488281 113.636719 C 81.964844 114.019531 82.457031 114.378906 82.96875 114.707031 C 83.480469 115.039062 84.007812 115.339844 84.554688 115.617188 C 85.097656 115.890625 85.65625 116.132812 86.226562 116.347656 C 86.800781 116.5625 87.378906 116.742188 87.972656 116.894531 C 88.5625 117.046875 89.160156 117.164062 89.761719 117.25 C 90.367188 117.335938 90.972656 117.390625 91.582031 117.414062 C 92.191406 117.433594 92.800781 117.421875 93.410156 117.378906 C 94.015625 117.332031 94.621094 117.257812 95.222656 117.148438 L 104.792969 314.914062 C 104.832031 315.769531 104.914062 316.625 105.035156 317.472656 C 105.15625 318.324219 105.320312 319.167969 105.523438 320 C 105.722656 320.835938 105.964844 321.65625 106.246094 322.46875 C 106.527344 323.28125 106.84375 324.074219 107.203125 324.855469 C 107.558594 325.636719 107.953125 326.398438 108.382812 327.144531 C 108.8125 327.886719 109.273438 328.609375 109.773438 329.308594 C 110.269531 330.007812 110.800781 330.679688 111.363281 331.328125 C 111.925781 331.976562 112.519531 332.597656 113.140625 333.191406 C 113.761719 333.78125 114.410156 334.34375 115.085938 334.875 C 115.757812 335.402344 116.457031 335.902344 117.179688 336.363281 C 117.902344 336.828125 118.644531 337.257812 119.410156 337.648438 C 120.171875 338.042969 120.953125 338.398438 121.75 338.714844 C 122.546875 339.035156 123.359375 339.3125 124.183594 339.554688 C 125.007812 339.796875 125.839844 339.996094 126.683594 340.160156 C 127.527344 340.320312 128.375 340.441406 129.230469 340.523438 C 130.085938 340.601562 130.941406 340.644531 131.800781 340.640625 L 246.367188 340.640625 C 247.222656 340.640625 248.082031 340.601562 248.933594 340.523438 C 249.789062 340.441406 250.636719 340.320312 251.480469 340.15625 C 252.324219 339.996094 253.15625 339.796875 253.980469 339.554688 C 254.804688 339.3125 255.617188 339.03125 256.414062 338.714844 C 257.210938 338.394531 257.988281 338.039062 258.753906 337.648438 C 259.515625 337.253906 260.257812 336.828125 260.980469 336.363281 C 261.703125 335.898438 262.402344 335.402344 263.078125 334.871094 C 263.753906 334.339844 264.402344 333.78125 265.023438 333.1875 C 265.644531 332.597656 266.234375 331.976562 266.796875 331.328125 C 267.359375 330.679688 267.890625 330.003906 268.386719 329.304688 C 268.886719 328.605469 269.351562 327.886719 269.777344 327.144531 C 270.207031 326.398438 270.601562 325.636719 270.957031 324.855469 C 271.316406 324.074219 271.632812 323.28125 271.914062 322.46875 C 272.195312 321.65625 272.4375 320.835938 272.636719 320 C 272.839844 319.167969 273.003906 318.324219 273.125 317.476562 C 273.246094 316.625 273.328125 315.773438 273.367188 314.914062 L 282.9375 117.144531 C 283.539062 117.253906 284.140625 117.332031 284.75 117.375 C 285.359375 117.421875 285.96875 117.433594 286.578125 117.410156 C 287.1875 117.390625 287.792969 117.335938 288.398438 117.25 C 289 117.164062 289.597656 117.042969 290.1875 116.890625 C 290.777344 116.742188 291.359375 116.558594 291.929688 116.34375 C 292.503906 116.132812 293.0625 115.886719 293.605469 115.613281 C 294.148438 115.339844 294.679688 115.039062 295.191406 114.707031 C 295.703125 114.375 296.195312 114.019531 296.671875 113.632812 C 297.144531 113.25 297.59375 112.839844 298.023438 112.410156 C 298.453125 111.976562 298.859375 111.519531 299.242188 111.042969 C 299.621094 110.570312 299.976562 110.074219 300.300781 109.558594 C 300.628906 109.042969 300.929688 108.511719 301.199219 107.964844 C 301.46875 107.417969 301.707031 106.859375 301.917969 106.285156 C 302.125 105.714844 302.304688 105.132812 302.453125 104.539062 C 302.597656 103.949219 302.710938 103.351562 302.792969 102.746094 C 302.878906 102.140625 302.925781 101.535156 302.945312 100.925781 L 302.945312 89.03125 C 302.941406 88.5 302.917969 87.96875 302.863281 87.441406 C 302.8125 86.914062 302.734375 86.386719 302.628906 85.867188 C 302.523438 85.347656 302.394531 84.832031 302.242188 84.324219 C 302.085938 83.816406 301.90625 83.316406 301.703125 82.828125 C 301.5 82.335938 301.273438 81.859375 301.023438 81.390625 C 300.773438 80.921875 300.5 80.464844 300.203125 80.023438 C 299.910156 79.582031 299.59375 79.15625 299.257812 78.746094 C 298.921875 78.335938 298.5625 77.945312 298.1875 77.570312 C 297.8125 77.191406 297.421875 76.835938 297.011719 76.5 C 296.601562 76.164062 296.175781 75.847656 295.734375 75.550781 C 295.292969 75.257812 294.835938 74.984375 294.367188 74.734375 C 293.902344 74.484375 293.421875 74.253906 292.929688 74.050781 C 292.441406 73.847656 291.941406 73.667969 291.433594 73.515625 C 290.925781 73.359375 290.410156 73.230469 289.890625 73.125 C 289.371094 73.023438 288.847656 72.945312 288.316406 72.890625 C 287.789062 72.839844 287.261719 72.8125 286.730469 72.8125 Z M 143.046875 54.082031 C 143.046875 53.726562 143.082031 53.375 143.152344 53.027344 C 143.21875 52.679688 143.324219 52.34375 143.460938 52.015625 C 143.59375 51.6875 143.761719 51.375 143.960938 51.078125 C 144.15625 50.785156 144.378906 50.511719 144.632812 50.261719 C 144.882812 50.011719 145.15625 49.785156 145.449219 49.589844 C 145.746094 49.390625 146.058594 49.226562 146.386719 49.089844 C 146.710938 48.953125 147.050781 48.851562 147.398438 48.78125 C 147.746094 48.710938 148.097656 48.675781 148.453125 48.675781 L 229.710938 48.675781 C 230.066406 48.675781 230.417969 48.710938 230.765625 48.78125 C 231.113281 48.851562 231.453125 48.953125 231.78125 49.089844 C 232.109375 49.226562 232.421875 49.390625 232.714844 49.589844 C 233.011719 49.785156 233.285156 50.011719 233.535156 50.261719 C 233.785156 50.511719 234.007812 50.785156 234.207031 51.078125 C 234.402344 51.375 234.570312 51.6875 234.707031 52.015625 C 234.84375 52.34375 234.945312 52.679688 235.015625 53.027344 C 235.085938 53.375 235.117188 53.726562 235.121094 54.082031 L 235.121094 72.8125 L 143.046875 72.8125 Z M 262.566406 314.394531 C 262.515625 315.425781 262.371094 316.441406 262.128906 317.445312 C 261.882812 318.449219 261.546875 319.421875 261.121094 320.359375 C 260.691406 321.296875 260.175781 322.1875 259.578125 323.027344 C 258.980469 323.871094 258.304688 324.644531 257.558594 325.359375 C 256.8125 326.070312 256.003906 326.703125 255.132812 327.261719 C 254.265625 327.820312 253.351562 328.289062 252.394531 328.671875 C 251.433594 329.054688 250.449219 329.34375 249.433594 329.539062 C 248.421875 329.734375 247.398438 329.828125 246.367188 329.828125 L 131.800781 329.828125 C 130.765625 329.828125 129.746094 329.734375 128.730469 329.539062 C 127.714844 329.34375 126.730469 329.054688 125.773438 328.671875 C 124.8125 328.289062 123.898438 327.820312 123.03125 327.261719 C 122.160156 326.703125 121.351562 326.070312 120.605469 325.355469 C 119.859375 324.644531 119.1875 323.867188 118.585938 323.027344 C 117.988281 322.1875 117.472656 321.296875 117.046875 320.355469 C 116.617188 319.417969 116.28125 318.445312 116.039062 317.445312 C 115.792969 316.441406 115.648438 315.421875 115.601562 314.390625 L 106.054688 117.144531 L 272.113281 117.144531 Z M 292.136719 100.925781 C 292.136719 101.28125 292.101562 101.632812 292.03125 101.980469 C 291.960938 102.328125 291.859375 102.664062 291.722656 102.992188 C 291.585938 103.320312 291.421875 103.632812 291.222656 103.925781 C 291.027344 104.222656 290.800781 104.496094 290.550781 104.746094 C 290.300781 104.996094 290.027344 105.222656 289.730469 105.417969 C 289.4375 105.617188 289.125 105.78125 288.796875 105.917969 C 288.46875 106.054688 288.132812 106.15625 287.785156 106.226562 C 287.433594 106.296875 287.082031 106.332031 286.730469 106.332031 L 91.4375 106.332031 C 91.082031 106.332031 90.730469 106.296875 90.382812 106.226562 C 90.035156 106.15625 89.695312 106.054688 89.367188 105.917969 C 89.039062 105.78125 88.730469 105.617188 88.433594 105.417969 C 88.140625 105.222656 87.867188 104.996094 87.613281 104.746094 C 87.363281 104.496094 87.140625 104.222656 86.941406 103.925781 C 86.746094 103.632812 86.578125 103.320312 86.441406 102.992188 C 86.308594 102.664062 86.203125 102.328125 86.132812 101.980469 C 86.066406 101.632812 86.03125 101.28125 86.03125 100.925781 L 86.03125 89.03125 C 86.03125 88.675781 86.066406 88.324219 86.132812 87.976562 C 86.203125 87.628906 86.308594 87.289062 86.441406 86.960938 C 86.578125 86.632812 86.746094 86.324219 86.941406 86.027344 C 87.140625 85.730469 87.363281 85.460938 87.613281 85.207031 C 87.867188 84.957031 88.140625 84.734375 88.433594 84.535156 C 88.730469 84.339844 89.039062 84.171875 89.367188 84.035156 C 89.695312 83.898438 90.035156 83.796875 90.382812 83.726562 C 90.730469 83.660156 91.082031 83.625 91.4375 83.625 L 286.730469 83.625 C 287.085938 83.625 287.433594 83.660156 287.785156 83.726562 C 288.132812 83.796875 288.46875 83.898438 288.796875 84.035156 C 289.125 84.171875 289.4375 84.339844 289.730469 84.535156 C 290.027344 84.734375 290.300781 84.957031 290.550781 85.207031 C 290.800781 85.460938 291.027344 85.730469 291.222656 86.027344 C 291.421875 86.324219 291.585938 86.632812 291.722656 86.960938 C 291.859375 87.289062 291.960938 87.628906 292.03125 87.976562 C 292.101562 88.324219 292.136719 88.675781 292.136719 89.03125 Z M 292.136719 100.925781 " fill-opacity="1" fill-rule="nonzero"/></g><path fill="#ffffff" d="M 189.082031 284.769531 C 189.4375 284.769531 189.789062 284.734375 190.136719 284.664062 C 190.484375 284.59375 190.824219 284.492188 191.152344 284.355469 C 191.480469 284.21875 191.792969 284.054688 192.085938 283.855469 C 192.382812 283.660156 192.65625 283.433594 192.90625 283.183594 C 193.15625 282.933594 193.382812 282.660156 193.578125 282.363281 C 193.777344 282.070312 193.941406 281.757812 194.078125 281.429688 C 194.214844 281.101562 194.316406 280.765625 194.386719 280.414062 C 194.453125 280.066406 194.488281 279.714844 194.488281 279.359375 L 194.488281 167.613281 C 194.488281 167.257812 194.453125 166.90625 194.386719 166.558594 C 194.316406 166.207031 194.214844 165.871094 194.078125 165.542969 C 193.941406 165.214844 193.777344 164.902344 193.578125 164.609375 C 193.382812 164.3125 193.15625 164.039062 192.90625 163.789062 C 192.65625 163.539062 192.382812 163.3125 192.085938 163.117188 C 191.792969 162.917969 191.480469 162.753906 191.152344 162.617188 C 190.824219 162.480469 190.484375 162.378906 190.136719 162.308594 C 189.789062 162.238281 189.4375 162.207031 189.082031 162.207031 C 188.726562 162.207031 188.375 162.238281 188.027344 162.308594 C 187.679688 162.378906 187.339844 162.480469 187.015625 162.617188 C 186.6875 162.753906 186.375 162.917969 186.078125 163.117188 C 185.785156 163.3125 185.511719 163.539062 185.257812 163.789062 C 185.007812 164.039062 184.785156 164.3125 184.585938 164.609375 C 184.390625 164.902344 184.222656 165.214844 184.085938 165.542969 C 183.953125 165.871094 183.847656 166.207031 183.78125 166.558594 C 183.710938 166.90625 183.675781 167.257812 183.675781 167.613281 L 183.675781 279.359375 C 183.675781 279.714844 183.710938 280.066406 183.78125 280.414062 C 183.847656 280.765625 183.953125 281.101562 184.085938 281.429688 C 184.222656 281.757812 184.390625 282.070312 184.585938 282.363281 C 184.785156 282.660156 185.007812 282.933594 185.257812 283.183594 C 185.511719 283.433594 185.785156 283.660156 186.078125 283.855469 C 186.375 284.054688 186.6875 284.21875 187.015625 284.355469 C 187.339844 284.492188 187.679688 284.59375 188.027344 284.664062 C 188.375 284.734375 188.726562 284.769531 189.082031 284.769531 Z M 189.082031 284.769531 " fill-opacity="1" fill-rule="nonzero"/><path fill="#ffffff" d="M 232.335938 284.769531 C 232.691406 284.769531 233.042969 284.734375 233.390625 284.664062 C 233.738281 284.59375 234.078125 284.492188 234.40625 284.355469 C 234.734375 284.21875 235.046875 284.054688 235.339844 283.855469 C 235.636719 283.660156 235.910156 283.433594 236.160156 283.183594 C 236.410156 282.933594 236.636719 282.660156 236.832031 282.363281 C 237.03125 282.070312 237.195312 281.757812 237.332031 281.429688 C 237.46875 281.101562 237.570312 280.765625 237.640625 280.414062 C 237.710938 280.066406 237.742188 279.714844 237.742188 279.359375 L 237.742188 167.613281 C 237.742188 167.257812 237.710938 166.90625 237.640625 166.558594 C 237.570312 166.207031 237.46875 165.871094 237.332031 165.542969 C 237.195312 165.214844 237.03125 164.902344 236.832031 164.609375 C 236.636719 164.3125 236.410156 164.039062 236.160156 163.789062 C 235.910156 163.539062 235.636719 163.3125 235.339844 163.117188 C 235.046875 162.917969 234.734375 162.753906 234.40625 162.617188 C 234.078125 162.480469 233.738281 162.378906 233.390625 162.308594 C 233.042969 162.238281 232.691406 162.207031 232.335938 162.207031 C 231.980469 162.207031 231.628906 162.238281 231.28125 162.308594 C 230.933594 162.378906 230.597656 162.480469 230.269531 162.617188 C 229.941406 162.753906 229.628906 162.917969 229.332031 163.117188 C 229.039062 163.3125 228.765625 163.539062 228.515625 163.789062 C 228.261719 164.039062 228.039062 164.3125 227.839844 164.609375 C 227.644531 164.902344 227.476562 165.214844 227.339844 165.542969 C 227.207031 165.871094 227.101562 166.207031 227.035156 166.558594 C 226.964844 166.90625 226.929688 167.257812 226.929688 167.613281 L 226.929688 279.359375 C 226.929688 279.714844 226.964844 280.066406 227.035156 280.414062 C 227.101562 280.765625 227.207031 281.101562 227.339844 281.429688 C 227.476562 281.757812 227.644531 282.070312 227.839844 282.363281 C 228.039062 282.660156 228.261719 282.933594 228.515625 283.183594 C 228.765625 283.433594 229.039062 283.660156 229.332031 283.855469 C 229.628906 284.054688 229.941406 284.21875 230.269531 284.355469 C 230.597656 284.492188 230.933594 284.59375 231.28125 284.664062 C 231.628906 284.734375 231.980469 284.769531 232.335938 284.769531 Z M 232.335938 284.769531 " fill-opacity="1" fill-rule="nonzero"/><path fill="#ffffff" d="M 145.828125 284.769531 C 146.183594 284.769531 146.535156 284.734375 146.882812 284.664062 C 147.230469 284.59375 147.570312 284.492188 147.898438 284.355469 C 148.226562 284.21875 148.539062 284.054688 148.832031 283.855469 C 149.128906 283.660156 149.402344 283.433594 149.652344 283.183594 C 149.902344 282.933594 150.128906 282.660156 150.324219 282.363281 C 150.519531 282.070312 150.6875 281.757812 150.824219 281.429688 C 150.960938 281.101562 151.0625 280.765625 151.132812 280.414062 C 151.199219 280.066406 151.234375 279.714844 151.234375 279.359375 L 151.234375 167.613281 C 151.234375 167.257812 151.199219 166.90625 151.132812 166.558594 C 151.0625 166.207031 150.960938 165.871094 150.824219 165.542969 C 150.6875 165.214844 150.519531 164.902344 150.324219 164.609375 C 150.128906 164.3125 149.902344 164.039062 149.652344 163.789062 C 149.402344 163.539062 149.128906 163.3125 148.832031 163.117188 C 148.539062 162.917969 148.226562 162.753906 147.898438 162.617188 C 147.570312 162.480469 147.230469 162.378906 146.882812 162.308594 C 146.535156 162.238281 146.183594 162.207031 145.828125 162.207031 C 145.472656 162.207031 145.121094 162.238281 144.773438 162.308594 C 144.425781 162.378906 144.085938 162.480469 143.757812 162.617188 C 143.429688 162.753906 143.121094 162.917969 142.824219 163.117188 C 142.53125 163.3125 142.257812 163.539062 142.003906 163.789062 C 141.753906 164.039062 141.53125 164.3125 141.332031 164.609375 C 141.136719 164.902344 140.96875 165.214844 140.832031 165.542969 C 140.699219 165.871094 140.59375 166.207031 140.527344 166.558594 C 140.457031 166.90625 140.421875 167.257812 140.421875 167.613281 L 140.421875 279.359375 C 140.421875 279.714844 140.457031 280.066406 140.527344 280.414062 C 140.59375 280.765625 140.699219 281.101562 140.832031 281.429688 C 140.96875 281.757812 141.136719 282.070312 141.332031 282.363281 C 141.53125 282.660156 141.753906 282.933594 142.003906 283.183594 C 142.257812 283.433594 142.53125 283.660156 142.824219 283.855469 C 143.121094 284.054688 143.429688 284.21875 143.757812 284.355469 C 144.085938 284.492188 144.425781 284.59375 144.773438 284.664062 C 145.121094 284.734375 145.472656 284.769531 145.828125 284.769531 Z M 145.828125 284.769531 " fill-opacity="1" fill-rule="nonzero"/></svg>